squats_1_grf
version=1
nRows=37
nColumns=19
inDegrees=no
endheader
time	ground_force_right_vx	ground_force_right_vy	ground_force_right_vz	ground_force_right_px	ground_force_right_py	ground_force_right_pz	ground_force_right_mx	ground_force_right_my	ground_force_right_mz	ground_force_left_vx	ground_force_left_vy	ground_force_left_vz	ground_force_left_px	ground_force_left_py	ground_force_left_pz	ground_force_left_mx	ground_force_left_my	ground_force_left_mz
     44.90500000	      4.73093633	    326.87877136	     45.72517862	     -3.55141822	      0.00726988	      2.25549074	     -0.00553602	      1.89926600	      0.00859940	     -3.03727176	    336.98285298	    -53.74772433	     -3.52950512	      0.00792862	      2.77222035	      0.00160552	     -0.48322705	      0.00083911
     44.90600000	      4.70492085	    326.83908060	     45.75491792	     -3.55147471	      0.00726985	      2.25546189	     -0.00552222	      1.89453207	      0.00857797	     -2.91169077	    336.42950009	    -53.65619945	     -3.52971557	      0.00792802	      2.77228195	      0.00159154	     -0.47901835	      0.00083180
     44.90700000	      4.67701181	    326.79461612	     45.78606263	     -3.55152971	      0.00726982	      2.25543209	     -0.00550761	      1.88952034	      0.00855528	     -2.77696885	    335.84384731	    -53.55940039	     -3.52993369	      0.00792741	      2.77234417	      0.00157694	     -0.47462339	      0.00082417
     44.90800000	      4.64717782	    326.74535822	     45.81863640	     -3.55158268	      0.00726981	      2.25540145	     -0.00549220	      1.88423238	      0.00853134	     -2.63313195	    335.22577810	    -53.45736665	     -3.53015883	      0.00792677	      2.77240670	      0.00156178	     -0.47006089	      0.00081625
     44.90900000	      4.61539395	    326.69134540	     45.85267154	     -3.55163312	      0.00726980	      2.25537010	     -0.00547598	      1.87866975	      0.00850615	     -2.48027266	    334.57523298	    -53.35015034	     -3.53039030	      0.00792611	      2.77246925	      0.00154613	     -0.46535161	      0.00080807
     44.91000000	      4.58164295	    326.63267887	     45.88821030	     -3.55168050	      0.00726981	      2.25533817	     -0.00545897	      1.87283387	      0.00847973	     -2.31855353	    333.89220675	    -53.23781496	     -3.53062738	      0.00792543	      2.77253153	      0.00153007	     -0.46051820	      0.00079968
     44.91100000	      4.54591676	    326.56952651	     45.92530594	     -3.55172432	      0.00726983	      2.25530579	     -0.00544117	      1.86672594	      0.00845207	     -2.14820966	    333.17674630	    -53.12043435	     -3.53086930	      0.00792473	      2.77259325	      0.00151368	     -0.45558500	      0.00079111
     44.91200000	      4.50821842	    326.50212611	     45.96402372	     -3.55176411	      0.00726986	      2.25527311	     -0.00542257	      1.86034688	      0.00842319	     -1.96955060	    332.42894945	    -52.99809196	     -3.53111529	      0.00792402	      2.77265415	      0.00149705	     -0.45057788	      0.00078242
     44.91300000	      4.46856413	    326.43078773	     46.00444166	     -3.55179939	      0.00726991	      2.25524027	     -0.00540319	      1.85369732	      0.00839308	     -1.78296144	    331.64896462	    -52.87088024	     -3.53136455	      0.00792329	      2.77271399	      0.00148026	     -0.44552400	      0.00077364
     44.91400000	      4.42698563	    326.35589527	     46.04665111	     -3.55182973	      0.00726997	      2.25520741	     -0.00538302	      1.84677766	      0.00836175	     -1.58890297	    330.83699155	    -52.73890039	     -3.53161625	      0.00792256	      2.77277252	      0.00146340	     -0.44045161	      0.00076483
     44.91500000	      4.38353272	    326.27790705	     46.09075717	     -3.55185474	      0.00727004	      2.25517469	     -0.00536207	      1.83958814	      0.00832920	     -1.38791108	    329.99328294	    -52.60226222	     -3.53186958	      0.00792182	      2.77282955	      0.00144659	     -0.43538986	      0.00075604
     44.91600000	      4.33827575	    326.19735538	     46.13687877	     -3.55187403	      0.00727013	      2.25514223	     -0.00534032	      1.83212894	      0.00829542	     -1.18059525	    329.11814708	    -52.46108431	     -3.53212371	      0.00792107	      2.77288488	      0.00142990	     -0.43036859	      0.00074733
     44.91700000	      4.29130819	    326.11484509	     46.18514854	     -3.55188728	      0.00727024	      2.25511020	     -0.00531780	      1.82440034	      0.00826043	     -0.96763617	    328.21195129	    -52.31549426	     -3.53237780	      0.00792032	      2.77293836	      0.00141345	     -0.42541812	      0.00073873
     44.91800000	      4.24274901	    326.03105098	     46.23571251	     -3.55189420	      0.00727036	      2.25507872	     -0.00529448	      1.81640288	      0.00822422	     -0.74978249	    327.27512612	    -52.16562908	     -3.53263104	      0.00791957	      2.77298984	      0.00139734	     -0.42056909	      0.00073031
     44.91900000	      4.19274481	    325.94671412	     46.28872943	     -3.55189453	      0.00727050	      2.25504793	     -0.00527039	      1.80813751	      0.00818680	     -0.52784682	    326.30817005	    -52.01163569	     -3.53288260	      0.00791882	      2.77303922	      0.00138167	     -0.41585232	      0.00072212
     44.92000000	      4.14147175	    325.86263717	     46.34436991	     -3.55188809	      0.00727065	      2.25501797	     -0.00524552	      1.79960580	      0.00814817	     -0.30270083	    325.31165469	    -51.85367135	     -3.53313170	      0.00791807	      2.77308640	      0.00136654	     -0.41129868	      0.00071421
     44.92100000	      4.08913698	    325.77967837	     46.40281535	     -3.55187471	      0.00727082	      2.25498896	     -0.00521989	      1.79081007	      0.00810834	     -0.07526970	    324.28623003	    -51.69190424	     -3.53337753	      0.00791733	      2.77313132	      0.00135206	     -0.40693895	      0.00070664
     44.92200000	      4.03597974	    325.69874455	     46.46425651	     -3.55185428	      0.00727101	      2.25496102	     -0.00519349	      1.78175355	      0.00806734	      0.15347419	    323.23262981	    -51.52651387	     -3.53361933	      0.00791660	      2.77317392	      0.00133832	     -0.40280380	      0.00069946
     44.92300000	      3.98227187	    325.62078296	     46.52889198	     -3.55182675	      0.00727121	      2.25493425	     -0.00516634	      1.77244054	      0.00802517	      0.38251813	    322.15167656	    -51.35769147	     -3.53385634	      0.00791588	      2.77321419	      0.00132543	     -0.39892365	      0.00069272
     44.92400000	      3.92831780	    325.54677199	     46.59692633	     -3.55179210	      0.00727143	      2.25490877	     -0.00513846	      1.76287649	      0.00798187	      0.61081651	    321.04428640	    -51.18564025	     -3.53408785	      0.00791518	      2.77325211	      0.00131348	     -0.39532863	      0.00068648
     44.92500000	      3.87445395	    325.47771094	     46.66856805	     -3.55175036	      0.00727166	      2.25488467	     -0.00510987	      1.75306807	      0.00793746	      0.83729871	    319.91147316	    -51.01057560	     -3.53431314	      0.00791449	      2.77328770	      0.00130258	     -0.39204853	      0.00068078
     44.92600000	      3.82104745	    325.41460889	     46.74402728	     -3.55170161	      0.00727190	      2.25486203	     -0.00508060	      1.74302325	      0.00789198	      1.06087740	    318.75435191	    -50.83272513	     -3.53453153	      0.00791383	      2.77332097	      0.00129283	     -0.38911274	      0.00067569
     44.92700000	      3.76849423	    325.35847279	     46.82351336	     -3.55164597	      0.00727216	      2.25484092	     -0.00505066	      1.73275128	      0.00784547	      1.28045707	    317.57414164	    -50.65232865	     -3.53474238	      0.00791318	      2.77335196	      0.00128432	     -0.38655024	      0.00067124
     44.92800000	      3.71721637	    325.31029482	     46.90723209	     -3.55158360	      0.00727243	      2.25482140	     -0.00502008	      1.72226270	      0.00779798	      1.49494279	    316.37216702	    -50.46963799	     -3.53494506	      0.00791256	      2.77338072	      0.00127714	     -0.38438952	      0.00066748
     44.92900000	      3.66765866	    325.27103937	     46.99538288	     -3.55151470	      0.00727271	      2.25480353	     -0.00498891	      1.71156927	      0.00774956	      1.70324912	    315.14985927	    -50.28491682	     -3.53513898	      0.00791196	      2.77340729	      0.00127139	     -0.38265859	      0.00066448
     44.93000000	      3.62028453	    325.24162945	     47.08815574	     -3.55143951	      0.00727300	      2.25478733	     -0.00495718	      1.70068392	      0.00770027	      1.90430889	    313.90875583	    -50.09844017	     -3.53532357	      0.00791139	      2.77343174	      0.00126715	     -0.38138492	      0.00066227
     44.93100000	      3.57557099	    325.22293302	     47.18572810	     -3.55135828	      0.00727331	      2.25477283	     -0.00492494	      1.68962064	      0.00765018	      2.09708201	    312.65049904	    -49.91049402	     -3.53549829	      0.00791085	      2.77345412	      0.00126453	     -0.38059537	      0.00066090
     44.93200000	      3.53400305	    325.21574923	     47.28826159	     -3.55127131	      0.00727362	      2.25476004	     -0.00489221	      1.67839439	      0.00759935	      2.28056403	    311.37683370	    -49.72137457	     -3.53566264	      0.00791033	      2.77347450	      0.00126360	     -0.38031612	      0.00066041
     44.93300000	      3.49606724	    325.22079480	     47.39589875	     -3.55117892	      0.00727394	      2.25474895	     -0.00485906	      1.66702098	      0.00754786	      2.45379438	    310.08960349	    -49.53138749	     -3.53581615	      0.00790986	      2.77349294	      0.00126445	     -0.38057259	      0.00066086
     44.93400000	      3.46224457	    325.23869078	     47.50875980	     -3.55108145	      0.00727427	      2.25473954	     -0.00482553	      1.65551695	      0.00749577	      2.61586438	    308.79074642	    -49.34084697	     -3.53595837	      0.00790941	      2.77350949	      0.00126717	     -0.38138926	      0.00066227
     44.93500000	      3.43300281	    325.26994983	     47.62693943	     -3.55097925	      0.00727460	      2.25473177	     -0.00479167	      1.64389943	      0.00744317	      2.76592462	    307.48228921	    -49.15007471	     -3.53608888	      0.00790901	      2.77352421	      0.00127182	     -0.38278950	      0.00066471
     44.93600000	      3.40878829	    325.31496422	     47.75050369	     -3.55087270	      0.00727494	      2.25472561	     -0.00475753	      1.63218607	      0.00739013	      2.90319206	    306.16634082	    -48.95939881	     -3.53620732	      0.00790863	      2.77353714	      0.00127848	     -0.38479536	      0.00066819
     44.93700000	      3.39001726	    325.37399473	     47.87948710	     -3.55076217	      0.00727528	      2.25472099	     -0.00472316	      1.62039489	      0.00733674	      3.02695633	    304.84508501	    -48.76915264	     -3.53631332	      0.00790830	      2.77354833	      0.00128723	     -0.38742728	      0.00067276
     44.93800000	      3.37706700	    325.44716060	     48.01388984	     -3.55064806	      0.00727563	      2.25471783	     -0.00468861	      1.60854421	      0.00728309	      3.13658562	    303.52077221	    -48.57967372	     -3.53640656	      0.00790801	      2.77355780	      0.00129812	     -0.39070377	      0.00067845
     44.93900000	      3.37026667	    325.53443073	     48.15367530	     -3.55053074	      0.00727598	      2.25471606	     -0.00465395	      1.59665255	      0.00722925	      3.23153168	    302.19571065	    -48.39130263	     -3.53648678	      0.00790775	      2.77356560	      0.00131120	     -0.39464111	      0.00068529
     44.94000000	      3.36988828	    325.63561641	     48.29876776	     -3.55041061	      0.00727633	      2.25471557	     -0.00461923	      1.58473860	      0.00717530	      3.31133431	    300.87225690	    -48.20438203	     -3.53655371	      0.00790754	      2.77357173	      0.00132652	     -0.39925297	      0.00069329
     44.94100000	      3.37613772	    325.75036553	     48.44905053	     -3.55028805	      0.00727668	      2.25471626	     -0.00458449	      1.57282109	      0.00712134	      3.37562493	    299.55280610	    -48.01925572	     -3.53660713	      0.00790737	      2.77357620	      0.00134412	     -0.40455005	      0.00070249
